<svg version="1.1" xmlns="http://www.w3.org/2000/svg" viewBox="0 0 1138 353" width="1138" height="353">
  <!-- svg-source:excalidraw -->
  
  <defs>
    <style class="style-fonts">
      @font-face {
        font-family: "Virgil";
        src: url("https://excalidraw.com/Virgil.woff2");
      }
      @font-face {
        font-family: "Cascadia";
        src: url("https://excalidraw.com/Cascadia.woff2");
      }
      @font-face {
        font-family: "Assistant";
        src: url("https://excalidraw.com/Assistant-Regular.woff2");
      }
    </style>
    
  </defs>
  <rect x="0" y="0" width="1138" height="353" fill="#ffffff"></rect><g stroke-linecap="round" transform="translate(442 54) rotate(0 86 86)"><path d="M55.63 5.4 C65.31 0.46, 79.13 -0.38, 91.01 0.27 C102.88 0.91, 116.44 3.78, 126.86 9.27 C137.28 14.75, 146.55 24.03, 153.54 33.18 C160.53 42.33, 165.98 53.09, 168.79 64.16 C171.59 75.23, 172.11 87.91, 170.37 99.6 C168.63 111.29, 164.92 124.44, 158.35 134.29 C151.79 144.13, 141.03 152.54, 130.99 158.66 C120.95 164.77, 109.58 169.21, 98.1 170.97 C86.62 172.74, 73.32 172.28, 62.13 169.26 C50.94 166.24, 39.87 160.48, 30.97 152.87 C22.06 145.25, 13.78 134, 8.69 123.57 C3.6 113.14, 0.95 101.98, 0.42 90.29 C-0.12 78.59, 1.05 64.29, 5.47 53.4 C9.89 42.5, 17.46 33.41, 26.92 24.92 C36.39 16.43, 54.94 6.05, 62.27 2.47 C69.59 -1.12, 70.51 1.8, 70.87 3.41 M93.57 0.72 C104.5 0.43, 117.4 6.28, 127.8 11.75 C138.2 17.21, 149.16 24.5, 155.99 33.49 C162.83 42.49, 166.26 54.41, 168.8 65.71 C171.35 77.01, 173.56 89.58, 171.25 101.27 C168.95 112.96, 161.85 126.11, 154.97 135.85 C148.1 145.6, 139.8 153.97, 130 159.75 C120.19 165.52, 107.48 169.23, 96.13 170.53 C84.79 171.82, 72.88 170.63, 61.95 167.52 C51.02 164.41, 39.33 159.26, 30.55 151.87 C21.77 144.47, 14.6 133.86, 9.28 123.14 C3.95 112.43, -1.23 99.61, -1.41 87.56 C-1.6 75.5, 3.19 61.6, 8.17 50.81 C13.16 40.01, 20.39 30.55, 28.49 22.78 C36.59 15.01, 45.96 7.91, 56.78 4.19 C67.61 0.47, 87.51 0.65, 93.44 0.46 C99.38 0.26, 92.69 1.85, 92.4 3.04" stroke="#1e1e1e" stroke-width="2" fill="none"></path></g><g stroke-linecap="round" transform="translate(956 18) rotate(0 86 86)"><path d="M109.32 3.01 C120.34 4.9, 133.02 13.45, 141.96 21.1 C150.91 28.74, 157.86 38.52, 162.98 48.86 C168.1 59.19, 172.32 71.46, 172.67 83.11 C173.03 94.75, 169.63 107.99, 165.13 118.73 C160.62 129.48, 153.87 139.48, 145.64 147.57 C137.42 155.65, 126.73 163.18, 115.75 167.22 C104.78 171.26, 91.55 172.63, 79.78 171.81 C68 171, 55.34 167.87, 45.11 162.32 C34.87 156.77, 25.63 147.82, 18.36 138.53 C11.1 129.25, 4.19 118, 1.51 106.59 C-1.17 95.17, 0.05 81.68, 2.27 70.05 C4.48 58.42, 8.36 46.19, 14.81 36.82 C21.25 27.44, 31.13 19.97, 40.94 13.8 C50.74 7.63, 59.67 0.78, 73.66 -0.21 C87.66 -1.2, 114.7 4.92, 124.9 7.87 C135.11 10.82, 135.54 16.01, 134.89 17.5 M99.96 0.13 C111.1 0.65, 125.51 6.64, 135.16 13.5 C144.8 20.35, 152 31.1, 157.83 41.24 C163.67 51.39, 168.14 62.86, 170.16 74.38 C172.18 85.9, 173.19 99.28, 169.95 110.36 C166.71 121.45, 158.15 132, 150.71 140.9 C143.27 149.8, 135.56 158.82, 125.3 163.77 C115.05 168.71, 100.86 170, 89.18 170.57 C77.5 171.14, 65.85 171.31, 55.24 167.16 C44.62 163.01, 33.91 154.18, 25.5 145.68 C17.09 137.19, 9.12 127, 4.8 116.18 C0.49 105.36, -1.45 92.38, -0.39 80.77 C0.67 69.16, 5.75 57.12, 11.15 46.51 C16.56 35.91, 23.19 24.44, 32.04 17.17 C40.88 9.9, 52.65 5.71, 64.21 2.9 C75.77 0.08, 95.55 0.27, 101.39 0.27 C107.23 0.27, 99.65 1.3, 99.27 2.9" stroke="#1e1e1e" stroke-width="2" fill="none"></path></g><g stroke-linecap="round" transform="translate(84 50) rotate(0 86 86)"><path d="M72.93 0.11 C83.84 -2.6, 99.25 -0.17, 110.51 3.28 C121.77 6.72, 131.57 13.22, 140.51 20.77 C149.45 28.33, 158.79 38.39, 164.15 48.6 C169.51 58.81, 172.5 70.42, 172.69 82.05 C172.88 93.67, 169.66 107.43, 165.28 118.33 C160.91 129.23, 154.83 139.33, 146.45 147.45 C138.08 155.58, 125.97 163.12, 115.04 167.09 C104.1 171.05, 92.54 171.98, 80.84 171.24 C69.15 170.5, 55.44 168.07, 44.88 162.66 C34.33 157.25, 24.56 148.02, 17.52 138.79 C10.47 129.56, 5.22 118.56, 2.62 107.29 C0.03 96.01, 0.08 82.77, 1.96 71.15 C3.83 59.53, 7.45 47.31, 13.86 37.57 C20.27 27.83, 29.34 19, 40.42 12.69 C51.51 6.37, 72.2 1.47, 80.36 -0.33 C88.52 -2.13, 89.21 0.24, 89.38 1.87 M123.5 8.6 C134.46 12.37, 145.23 22.67, 152.56 31.34 C159.89 40.01, 164.18 49.6, 167.48 60.62 C170.77 71.65, 173.87 85.84, 172.32 97.48 C170.76 109.12, 164.23 120.62, 158.16 130.44 C152.09 140.26, 145.15 149.57, 135.89 156.37 C126.63 163.18, 113.99 169.03, 102.58 171.27 C91.17 173.51, 79.1 172.76, 67.43 169.81 C55.76 166.85, 42.2 160.73, 32.57 153.54 C22.93 146.34, 14.96 136.52, 9.63 126.65 C4.3 116.77, 1.23 105.8, 0.56 94.28 C-0.1 82.76, 1.92 68.88, 5.63 57.51 C9.33 46.15, 14.79 34.48, 22.8 26.1 C30.8 17.71, 42.68 11.5, 53.65 7.19 C64.62 2.88, 77.12 0.25, 88.6 0.23 C100.08 0.22, 116.74 5.38, 122.54 7.1 C128.34 8.82, 123.74 8.96, 123.4 10.56" stroke="#1e1e1e" stroke-width="2" fill="none"></path></g><g transform="translate(88.89679670455041 105.85053388257484) rotate(0 81.9157010313819 25)"><text x="0" y="17.52" font-family="Virgil, Segoe UI Emoji" font-size="20px" fill="#1e1e1e" text-anchor="start" style="white-space: pre;" direction="ltr" dominant-baseline="alphabetic">Api endpoint</text><text x="0" y="42.519999999999996" font-family="Virgil, Segoe UI Emoji" font-size="20px" fill="#1e1e1e" text-anchor="start" style="white-space: pre;" direction="ltr" dominant-baseline="alphabetic">/api/players/new</text></g><g stroke-linecap="round"><g transform="translate(276 132) rotate(0 74 0)"><path d="M0.58 -1.11 C25.33 -1.24, 123.81 -1.37, 148.55 -1.06 M-0.57 0.92 C24.06 0.93, 122.99 0.27, 147.89 -0.07" stroke="#1e1e1e" stroke-width="2" fill="none"></path></g><g transform="translate(276 132) rotate(0 74 0)"><path d="M124.48 8.7 C129.76 6.84, 136.97 4.98, 147.89 -0.07 M124.48 8.7 C133.16 6.12, 141.49 2.17, 147.89 -0.07" stroke="#1e1e1e" stroke-width="2" fill="none"></path></g><g transform="translate(276 132) rotate(0 74 0)"><path d="M124.32 -8.4 C129.61 -5.06, 136.87 -1.73, 147.89 -0.07 M124.32 -8.4 C133.04 -4.74, 141.43 -2.46, 147.89 -0.07" stroke="#1e1e1e" stroke-width="2" fill="none"></path></g></g><mask></mask><g transform="translate(480 102) rotate(0 51.43994140625 37.5)"><text x="0" y="17.52" font-family="Virgil, Segoe UI Emoji" font-size="20px" fill="#1e1e1e" text-anchor="start" style="white-space: pre;" direction="ltr" dominant-baseline="alphabetic">Check for </text><text x="0" y="42.519999999999996" font-family="Virgil, Segoe UI Emoji" font-size="20px" fill="#1e1e1e" text-anchor="start" style="white-space: pre;" direction="ltr" dominant-baseline="alphabetic">user/email</text><text x="0" y="67.52" font-family="Virgil, Segoe UI Emoji" font-size="20px" fill="#1e1e1e" text-anchor="start" style="white-space: pre;" direction="ltr" dominant-baseline="alphabetic">in DB</text></g><g transform="translate(696 167.25475608816146) rotate(0 30.319976806640625 13.872621955919271)"><text x="0" y="19.443866933416462" font-family="Virgil, Segoe UI Emoji" font-size="22.196195129470848px" fill="#1e1e1e" text-anchor="start" style="white-space: pre;" direction="ltr" dominant-baseline="alphabetic">Found</text></g><g transform="translate(694.0080078125 84) rotate(0 57.94194335937493 29)"><text x="0" y="20.323199999999993" font-family="Virgil, Segoe UI Emoji" font-size="23.19999999999999px" fill="#1e1e1e" text-anchor="start" style="white-space: pre;" direction="ltr" dominant-baseline="alphabetic">Not Found</text><text x="0" y="49.32319999999998" font-family="Virgil, Segoe UI Emoji" font-size="23.19999999999999px" fill="#1e1e1e" text-anchor="start" style="white-space: pre;" direction="ltr" dominant-baseline="alphabetic"></text></g><g stroke-linecap="round"><g transform="translate(636 110) rotate(0 24 -4)"><path d="M0.5 -0.31 C8.6 -1.66, 40.29 -7.25, 48.12 -8.48 M0.1 0.72 C8.18 -0.54, 39.68 -6.47, 47.75 -8.02" stroke="#1e1e1e" stroke-width="2" fill="none"></path></g><g transform="translate(636 110) rotate(0 24 -4)"><path d="M26.84 4.41 C30.79 1.88, 34.95 -1.91, 47.75 -8.02 M26.84 4.41 C33.9 -0.52, 41.55 -4.66, 47.75 -8.02" stroke="#1e1e1e" stroke-width="2" fill="none"></path></g><g transform="translate(636 110) rotate(0 24 -4)"><path d="M23.74 -11.94 C28.29 -10.99, 33.12 -11.29, 47.75 -8.02 M23.74 -11.94 C31.93 -11.03, 40.69 -9.34, 47.75 -8.02" stroke="#1e1e1e" stroke-width="2" fill="none"></path></g></g><mask></mask><g stroke-linecap="round"><g transform="translate(622 162) rotate(0 30 7)"><path d="M-0.86 1.2 C9.18 3.43, 49.05 12, 59.24 14.13 M0.89 0.78 C11.41 3.16, 51.75 13.32, 61.56 15.73" stroke="#1e1e1e" stroke-width="2" fill="none"></path></g><g transform="translate(622 162) rotate(0 30 7)"><path d="M36.7 18.36 C43.99 16.72, 47.51 17.96, 61.56 15.73 M36.7 18.36 C43.57 18.07, 52 16.36, 61.56 15.73" stroke="#1e1e1e" stroke-width="2" fill="none"></path></g><g transform="translate(622 162) rotate(0 30 7)"><path d="M40.83 1.76 C47.34 3.63, 49.98 8.42, 61.56 15.73 M40.83 1.76 C46.61 6.4, 53.82 9.59, 61.56 15.73" stroke="#1e1e1e" stroke-width="2" fill="none"></path></g></g><mask></mask><g transform="translate(598 276) rotate(0 133.61984252929688 12.5)"><text x="0" y="17.52" font-family="Virgil, Segoe UI Emoji" font-size="20px" fill="#1e1e1e" text-anchor="start" style="white-space: pre;" direction="ltr" dominant-baseline="alphabetic">Return http.StatusConflict</text></g><g stroke-linecap="round"><g transform="translate(723.6280942757344 204) rotate(0 4.1369305920582065 31)"><path d="M0.15 -0.36 C1.25 9.85, 6.52 50.81, 7.71 61.37 M-1.23 -1.59 C-0.44 8.75, 4.65 52.11, 6.46 62.58" stroke="#1e1e1e" stroke-width="2" fill="none"></path></g><g transform="translate(723.6280942757344 204) rotate(0 4.1369305920582065 31)"><path d="M-5.26 40.5 C-1.22 48.21, 2.93 56.13, 6.46 62.58 M-5.26 40.5 C-0.81 49.4, 2.96 57.01, 6.46 62.58" stroke="#1e1e1e" stroke-width="2" fill="none"></path></g><g transform="translate(723.6280942757344 204) rotate(0 4.1369305920582065 31)"><path d="M11.68 38.13 C9.07 46.79, 6.57 55.64, 6.46 62.58 M11.68 38.13 C9.62 48.06, 6.87 56.58, 6.46 62.58" stroke="#1e1e1e" stroke-width="2" fill="none"></path></g></g><mask></mask><g stroke-linecap="round"><g transform="translate(822 96) rotate(0 60 -2)"><path d="M0.11 -0.42 C19.81 -1.1, 98.79 -2.31, 118.96 -3.03 M-1.28 -1.69 C18.71 -2.17, 100.76 -4.28, 121.12 -4.65" stroke="#1e1e1e" stroke-width="2" fill="none"></path></g><g transform="translate(822 96) rotate(0 60 -2)"><path d="M97.83 4.43 C105.5 -0.63, 116.28 -0.38, 121.12 -4.65 M97.83 4.43 C103.43 2.3, 108.94 -0.69, 121.12 -4.65" stroke="#1e1e1e" stroke-width="2" fill="none"></path></g><g transform="translate(822 96) rotate(0 60 -2)"><path d="M97.44 -12.67 C105.41 -11.52, 116.32 -5.06, 121.12 -4.65 M97.44 -12.67 C103.02 -10.81, 108.62 -9.8, 121.12 -4.65" stroke="#1e1e1e" stroke-width="2" fill="none"></path></g></g><mask></mask><g transform="translate(1010 78) rotate(0 31.259971618652344 25)"><text x="0" y="17.52" font-family="Virgil, Segoe UI Emoji" font-size="20px" fill="#1e1e1e" text-anchor="start" style="white-space: pre;" direction="ltr" dominant-baseline="alphabetic">Insert</text><text x="0" y="42.519999999999996" font-family="Virgil, Segoe UI Emoji" font-size="20px" fill="#1e1e1e" text-anchor="start" style="white-space: pre;" direction="ltr" dominant-baseline="alphabetic">to DB</text></g><g stroke-linecap="round"><g transform="translate(1040 210) rotate(0 -1 46)"><path d="M0.66 0.29 C0.57 15.54, -1.18 75.42, -1.65 90.85 M-0.46 -0.6 C-0.58 14.8, -1.99 76.51, -2.42 91.79" stroke="#1e1e1e" stroke-width="2" fill="none"></path></g><g transform="translate(1040 210) rotate(0 -1 46)"><path d="M-10.38 68.09 C-8.36 73.55, -9.11 77.63, -2.42 91.79 M-10.38 68.09 C-7.53 76.82, -4.81 85.7, -2.42 91.79" stroke="#1e1e1e" stroke-width="2" fill="none"></path></g><g transform="translate(1040 210) rotate(0 -1 46)"><path d="M6.71 68.52 C5.18 73.98, 0.89 77.97, -2.42 91.79 M6.71 68.52 C3.12 77.13, -0.6 85.86, -2.42 91.79" stroke="#1e1e1e" stroke-width="2" fill="none"></path></g></g><mask></mask><g transform="translate(977.7744122314452 312) rotate(0 63.16553680419929 15.5)"><text x="0" y="21.724800000000005" font-family="Virgil, Segoe UI Emoji" font-size="24.800000000000004px" fill="#1e1e1e" text-anchor="start" style="white-space: pre;" direction="ltr" dominant-baseline="alphabetic">Return OK</text></g><g transform="translate(10 10) rotate(0 164.47982788085938 12.5)"><text x="0" y="17.52" font-family="Virgil, Segoe UI Emoji" font-size="20px" fill="#1e1e1e" text-anchor="start" style="white-space: pre;" direction="ltr" dominant-baseline="alphabetic">JSON: Username, Email, Password</text></g></svg>